<svg xmlns="http://www.w3.org/2000/svg" viewBox="0 0 512 512"><path fill="#f7931a" d="M512 256c0 141.4-114.6 256-256 256S0 397.4 0 256 114.6 0 256 0s256 114.6 256 256z"/><path fill="#fff" d="M346.7 186.2c12.3-13.3 18.2-30.8 15.6-48.4-3.4-23-20.9-42.3-44.5-47.3l-5.6-17.1-41-13.4-5.4 16.5c-4.3-.9-8.6-1.8-12.9-2.7l5.4-16.5-41-13.4-5.6 17.1c-15.3-3.8-30.2-5-44.2-3.3-21.7 2.6-39.2 16.8-46.7 36.3-4.8 12.3-5.2 25.8-1.5 38.3l-19.4 6.3 19.3 59.2c2 6.1 1.7 12.6-.9 18.5-2.6 5.9-7.2 10.2-13.1 12.4l-29.1 9.4 12.6 38.8 29.1-9.4c6.9-2.2 12.6-6.6 16.6-12.5 1-.9 1.9-1.8 2.8-2.8l47.5 15.4c-.4 5.3-1.1 10.6-2.2 15.8l-47.5 15.4-10.7 33.1 41 13.4 10.7-33.1c5.2 1.3 10.3 2.5 15.3 3.6l-10.7 33.1 41 13.4 10.7-33.1c28.3 6.9 59.7 2.2 80.2-18.4 17.7-17.8 25.2-43.2 19.1-66.9zm-80.8 83.2c-29.2 14-68.8 11.4-91.3-10.3-22.6-21.8-21.2-57.8 3.1-77.9 24.3-20.1 60.1-23.7 87.2-9.1 27.1 14.6 34.2 50.7 11 77.3z"/></svg>
