<svg xmlns="http://www.w3.org/2000/svg" viewBox="0 0 64 64"><defs><style>.cls-1{fill:#455a64;}.cls-2{fill:#fff;}.cls-3{fill:#ff5722;}.cls-4{fill:#ff9800;}</style></defs><title>Mastercard</title><g id="Mastercard-2" data-name="Mastercard"><path class="cls-1" d="M60,8H4A4,4,0,0,0,0,12V52a4,4,0,0,0,4,4H60a4,4,0,0,0,4-4V12A4,4,0,0,0,60,8Z"/><rect class="cls-2" x="4" y="16" width="56" height="8"/><rect class="cls-2" x="12" y="36" width="20" height="4"/><rect class="cls-2" x="12" y="44" width="12" height="4"/><circle class="cls-3" cx="44" cy="42" r="4"/><path class="cls-4" d="M52,42a4,4,0,1,1-4-4A4,4,0,0,1,52,42Z"/></g></svg>