<svg xmlns="http://www.w3.org/2000/svg" viewBox="0 0 384 512"><path fill="#ff5f00" d="M149.2 122.9c18.5-4.6 37.1-7 55.4-7.2l-.3-1.5c-18.3.2-36.8 2.5-55.1 7.1l-.1-1.4z"/><path fill="#eb001b" d="M204.6 115.7c-18.3.2-36.8 2.5-55.1 7.1l-1.6 4.1c18.9-4.8 38.3-7.2 58.1-7.1l-1.4-4.1z"/><path fill="#f79e1b" d="M125.1 154.9c-3.1 8.8-4.8 18-4.8 27.5 0 36.1 19 68 47.7 85.3-18.4 17.6-42.1 27.9-68.3 27.9-53.7 0-97.1-43.5-97.1-97.1 0-42.6 27.5-78.9 65.2-92.4a154.2 154.2 0 0 1 57.3-1.2z"/><path fill="#eb001b" d="M381.1 251.2c0 53.7-43.5 97.1-97.1 97.1-26.1 0-49.9-10.3-68.3-27.9 28.7-17.3 47.7-49.2 47.7-85.3 0-9.5-1.7-18.7-4.8-27.5-1.8-5-3.9-9.8-6.3-14.4 29.4 11.6 50.8 39.8 50.8 73.1 0 16.7-5.3 32.2-14.2 45.2 24.3-10.4 40.5-35.3 40.5-64 0-32.9-20.9-61.2-50.2-72.3l.3-1.8c52 14.8 89.6 63.8 89.6 122.2z"/></svg>
