<svg xmlns="http://www.w3.org/2000/svg" viewBox="0 0 384 512"><path fill="#003087" d="M21.9 68.7c-21.7 10-38 29.8-41.9 53.6-5 31.8 8.1 63.4 30.6 86.2 17.5 17.7 41.3 29.9 67.5 33.2 26.5 3.3 53.1-2.4 76.7-16.3l.9.6c-5.8 13.3-13.6 25.4-22.9 35.8-19.3 21.6-45.7 33.8-74.1 33.8-24.9 0-48.4-7.4-68.3-21-2.5-1.7-5.4-1.3-7.5.8l-12.3 12.8c-2.4 2.5-2.2 6.5.4 8.8 21.6 18.7 48.2 28.8 76.9 29.5 32.2.8 62.4-8.8 85.8-27.4 22.3-17.7 37.1-42.9 42.4-71.1 5.3-28.1-4.8-56.7-22.6-77.9-17-19.9-40.4-32.6-66-36.4-25.5-3.8-51.1 1.4-73.7 15l-.8-.6c6.4-13.9 15-26.6 25.5-37.5 20.3-21.1 47.1-32.8 75.8-32.8 23.3 0 45.4 6.7 64.6 19.4 2.4 1.6 5.6 1.1 7.5-.9l11.7-12.1c2.2-2.3 2.1-6.1-.4-8.3-21-18-46.7-27.7-74.4-28.4-31.1-.8-60.4 8.7-83.1 26.6z"/><path fill="#009cde" d="m362.1 68.7-11.7 12.1c-1.9 1.9-5.1 2.5-7.5.9-19.3-12.7-41.4-19.4-64.6-19.4-28.7 0-55.5 11.7-75.8 32.8-10.5 10.9-19.1 23.6-25.5 37.5l.8.6c22.6-13.6 48.2-18.8 73.7-15 25.6 3.8 49 16.4 66 36.4 17.8 21.2 27.9 49.8 22.6 77.9-5.3 28.1-20.1 53.4-42.4 71.1-23.4 18.6-53.6 28.2-85.8 27.4-28.6-.7-55.3-10.8-76.9-29.5-2.6-2.3-6.2-2.7-8.8-.4l-12.3-12.8c-2.1-2.1-5-2.5-7.5-.8-19.9 13.6-43.4 21-68.3 21-28.4 0-54.8-12.2-74.1-33.8-9.4-10.4-17.2-22.5-22.9-35.8l-.9-.6c23.5 13.9 50.3 19.6 76.7 16.3 26.2-3.3 50-15.5 67.5-33.2 22.5-22.8 35.6-54.4 30.6-86.2-3.9-23.8-20.2-43.6-41.9-53.6-25.8-12-55.9-12.1-81.8-1.5-2.8 1.1-6.1.2-8.1-2.2l-10-12.4c-2.3-2.9-1.9-7.2.9-9.5 25.3-20.9 56.7-32.9 90.1-32.9 29.8 0 58.1 9.8 81.6 28.5 2.6 2.1 2.7 6 .4 8.3z"/></svg>
