<svg width="226" height="167" viewBox="0 0 226 167" fill="none" xmlns="http://www.w3.org/2000/svg">
<g filter="url(#filter0_d_353_4480)">
<rect x="21.3229" y="21.3229" width="182.562" height="124.354" rx="14.5521" fill="white" stroke="#D9D9D9" stroke-width="2.64583"/>
<path fill-rule="evenodd" clip-rule="evenodd" d="M96.0279 59.948C103.111 59.948 108.995 62.4841 112.551 68.6186C115.842 74.478 114.773 81.3916 111.951 87.251C115.507 86.9759 123.659 83.1165 125.776 71.1187C126.042 69.4932 127.373 68.0784 128.983 67.8033L135.093 66.7129C136.162 66.4378 137.23 67.2629 136.965 68.3435L133.409 84.8164C133.143 85.897 132.074 86.7221 130.902 86.7221H125.776L125.51 88.076C123.925 96.9408 116.571 103.35 107.41 103.35H91.3308C90.2618 103.35 89.4578 102.525 89.1918 101.444L82.2981 71.3938C82.0321 70.3132 82.8361 69.4881 83.9051 69.4881H93.8999C95.2309 69.4881 96.2999 70.5785 96.0279 71.9339L94.9589 78.3511C97.2469 77.526 100.322 77.2509 103.111 77.526C107.676 77.8011 110.217 80.3372 109.412 84.8164C108.873 87.7912 106.333 89.9407 103.377 89.9407H99.0278C97.9588 89.9407 97.1548 90.7658 97.4208 91.8464L99.2938 99.3082C99.5598 100.389 100.629 101.174 101.708 100.9C102.787 100.625 103.591 99.5447 103.325 98.4641L96.0279 59.948Z" fill="#003087"/>
<path fill-rule="evenodd" clip-rule="evenodd" d="M128.72 59.1355C138.163 59.1355 145.783 63.8845 148.871 70.2917C151.693 76.4262 149.82 83.9149 146.463 88.9389C149.484 88.3637 155.86 85.1141 157.445 76.5244C157.711 75.169 158.78 74.0786 160.083 73.8034L165.927 72.713C166.996 72.4379 168.065 73.263 167.799 74.3436L164.243 90.8165C163.977 91.8971 162.908 92.7222 161.736 92.7222H157.445C156.376 92.7222 155.572 93.5473 155.306 94.6279L151.75 109.921C151.484 111.002 150.415 111.827 149.243 111.827H133.916C132.847 111.827 132.043 111.002 131.777 109.921L128.72 98.4642C128.454 97.3836 129.258 96.5585 130.327 96.5585H137.947C139.278 96.5585 140.347 97.6489 140.075 98.9942L139.27 102.775C139.004 103.856 139.808 104.681 140.877 104.681H143.255C144.586 104.681 145.655 103.59 145.921 102.245L150.486 78.3511C151.29 73.8719 148.75 71.3358 144.185 71.0607C141.396 70.7856 138.321 71.0607 136.033 71.8858L128.72 59.1355Z" fill="#009CDE"/>
</g>
<defs>
<filter id="filter0_d_353_4480" x="0" y="0" width="225.208" height="167" filterUnits="userSpaceOnUse" color-interpolation-filters="sRGB">
<feFlood flood-opacity="0" result="BackgroundImageFix"/>
<feColorMatrix in="SourceAlpha" type="matrix" values="0 0 0 0 0 0 0 0 0 0 0 0 0 0 0 0 0 0 127 0" result="hardAlpha"/>
<feOffset/>
<feGaussianBlur stdDeviation="10"/>
<feComposite in2="hardAlpha" operator="out"/>
<feColorMatrix type="matrix" values="0 0 0 0 0 0 0 0 0 0 0 0 0 0 0 0 0 0 0.07 0"/>
<feBlend mode="normal" in2="BackgroundImageFix" result="effect1_dropShadow_353_4480"/>
<feBlend mode="normal" in="SourceGraphic" in2="effect1_dropShadow_353_4480" result="shape"/>
</filter>
</defs>
</svg>
