<svg xmlns="http://www.w3.org/2000/svg" viewBox="0 0 750 471" width="64" height="40">
    <rect width="750" height="471" rx="35" fill="#142688"/>
    <path fill="#fff" d="m202.21 162.24-43.32 181.65h35.77l43.32-181.65h-35.77zm112.16 0-66.23 234.33h34.1l66.23-234.33h-34.1zm118.96 7.6-22.1 113.62-11.23-57.8c-1.43-7.3-8.5-12.78-16.15-12.28l-46.43 4.2 27.28 211.59h37.93l74.9-234.33c2.02-6.23-1.63-12.87-8.1-14.93l-45.83-14.37zm116.3 3.32-44.4 145.43-12.4-59.5c-2.4-12.2-14.7-19.6-26.44-17.2l-45.8 9.54 27.27 211.6h37.93l64.8-176.63c2.8-7.65-2.33-15.7-10.37-17.5l-45.4-11.24zM121.12 165.7c-14.67-2.14-20.1-5.6-20.1-11.1s5.6-8.9 16.8-8.9a38.48 38.48 0 0 1 25.6 7.2l10.1-32.8c-11.1-6.1-26.8-9.9-43.5-9.9-34.5 0-54.6 17.8-54.6 42.8 0 34.5 38.4 40.1 38.4 49 0 6.7-8.9 10.6-19.5 10.6a45.3 45.3 0 0 1-32.3-12.2l-11.2 33.7c12.2 7.7 27.9 12.2 46.8 12.2 37.9 0 58-18.9 58-45.6s-34.5-31.5-50.4-34.4z"/>
</svg>
