<svg xmlns="http://www.w3.org/2000/svg" viewBox="0 0 576 512"><path fill="#1a1f71" d="M48.2 132.3c3-16.7 19.2-28.3 35.9-25.3l33.8 6c3.2.6 6.1 1.9 8.7 3.8l268.4 191.6c5.8 4.1 8.9 11 8.2 18s-6.3 12.6-13.4 14.6l-33.8 9.5c-3.2.9-6.3 1.1-9.4.6l-273-39.7c-7.8-1.1-13.9-7.2-15-15l-19.4-134.1zm507.7 78.2L329.1 52.1c-5.8-4.1-13.1-4.8-19.6-1.7l-33.8 15.9c-3.2 1.5-6 3.8-8.1 6.6L48.2 264.9c-4.4 5.8-4.9 13.5-1.1 19.9l33.8 56.8c3.8 6.4 11.1 9.9 18.7 8.9l273-31c7.8- .9 13.9-6.7 15-14.4l19.4-134.1c.9-6.8-2-13.6-7.8-18z"/></svg>
